<?xml version="1.0" standalone="no"?>
<!DOCTYPE svg PUBLIC "-//W3C//DTD SVG 20010904//EN"
 "http://www.w3.org/TR/2001/REC-SVG-20010904/DTD/svg10.dtd">
<svg version="1.0" xmlns="http://www.w3.org/2000/svg"
 width="1324.000000pt" height="631.000000pt" viewBox="0 0 1324.000000 631.000000"
 preserveAspectRatio="xMidYMid meet">

<g transform="translate(0.000000,631.000000) scale(0.100000,-0.100000)"
fill="#000000" stroke="none">
<path d="M2547 6242 c-35 -38 -10 -112 36 -112 14 0 17 -11 18 -67 l1 -68 15
65 c8 36 21 77 29 92 31 57 6 108 -53 108 -16 0 -37 -8 -46 -18z"/>
<path d="M2620 5943 c0 -54 -3 -116 -7 -137 -4 -25 -3 -37 4 -33 10 6 19 267
9 267 -3 0 -6 -44 -6 -97z"/>
<path d="M4835 5995 c-31 -30 -32 -64 -4 -94 21 -23 27 -58 29 -164 0 -23 4
-36 10 -32 6 3 10 43 10 89 0 79 1 83 25 94 49 22 53 97 6 121 -30 17 -50 13
-76 -14z"/>
<path d="M3248 5823 c7 -3 16 -2 19 1 4 3 -2 6 -13 5 -11 0 -14 -3 -6 -6z"/>
<path d="M3280 5816 c0 -2 7 -7 16 -10 8 -3 12 -2 9 4 -6 10 -25 14 -25 6z"/>
<path d="M2613 5725 c0 -22 2 -30 4 -17 2 12 2 30 0 40 -3 9 -5 -1 -4 -23z"/>
<path d="M1930 5733 c-25 -9 -40 -35 -40 -68 0 -36 25 -64 61 -67 23 -2 24 -5
21 -56 -2 -29 -1 -70 3 -90 12 -61 24 -9 18 74 -5 57 -2 77 11 95 41 60 -9
135 -74 112z"/>
<path d="M2632 5720 c0 -14 2 -19 5 -12 2 6 2 18 0 25 -3 6 -5 1 -5 -13z"/>
<path d="M3260 5620 c0 -44 4 -80 9 -80 6 0 9 35 8 80 -3 104 -17 104 -17 0z"/>
<path d="M4851 5597 c-15 -39 -14 -45 5 -19 8 12 13 28 11 35 -3 6 -10 -1 -16
-16z"/>
<path d="M2660 5547 c0 -24 55 -82 79 -84 30 -2 25 6 -30 56 -33 30 -49 39
-49 28z"/>
<path d="M4796 5511 c-15 -6 -16 -9 -5 -13 8 -3 20 1 27 8 14 15 7 17 -22 5z"/>
<path d="M3265 5425 c3 -22 5 -114 5 -205 0 -111 4 -160 10 -150 12 19 12 373
0 365 -5 -3 -11 3 -14 12 -3 10 -3 0 -1 -22z"/>
<path d="M1991 5403 c-1 -6 -4 -20 -7 -30 -5 -17 -5 -17 6 0 6 10 9 23 6 30
-3 9 -5 9 -5 0z"/>
<path d="M4187 5362 c-25 -28 -22 -46 4 -31 17 9 19 13 8 20 -10 6 -4 9 19 9
17 0 32 5 32 10 0 17 -46 11 -63 -8z"/>
<path d="M2014 5339 c1 -26 74 -89 94 -81 19 7 -57 73 -77 67 -8 -4 -11 0 -8
10 4 8 2 17 -2 19 -5 3 -8 -4 -7 -15z"/>
<path d="M4201 5244 c0 -11 3 -14 6 -6 3 7 2 16 -1 19 -3 4 -6 -2 -5 -13z"/>
<path d="M4222 5240 c0 -14 2 -19 5 -12 2 6 2 18 0 25 -3 6 -5 1 -5 -13z"/>
<path d="M1354 5206 c-10 -8 -16 -18 -11 -22 4 -4 13 -1 20 8 6 9 19 18 27 21
13 5 13 6 -1 6 -8 1 -24 -5 -35 -13z"/>
<path d="M1432 5173 c-7 -12 -12 -27 -12 -34 0 -6 -8 -18 -17 -24 -16 -12 -15
-13 10 -12 22 2 28 8 33 34 8 44 0 64 -14 36z"/>
<path d="M4222 5130 c0 -14 2 -19 5 -12 2 6 2 18 0 25 -3 6 -5 1 -5 -13z"/>
<path d="M2128 5097 c-3 -19 -2 -25 4 -19 6 6 8 18 6 28 -3 14 -5 12 -10 -9z"/>
<path d="M1441 5074 c0 -11 3 -14 6 -6 3 7 2 16 -1 19 -3 4 -6 -2 -5 -13z"/>
<path d="M2697 5073 c-15 -14 -3 -23 104 -77 116 -59 139 -66 139 -40 0 10
-40 34 -114 70 -124 59 -120 57 -129 47z"/>
<path d="M2565 4959 c-9 -13 -20 -7 135 -83 123 -60 167 -71 145 -35 -8 12
-247 129 -264 129 -6 0 -13 -5 -16 -11z"/>
<path d="M1500 4936 c6 -8 17 -13 25 -10 8 3 16 -4 20 -17 6 -17 9 -19 16 -8
6 10 1 19 -14 31 -16 12 -24 14 -29 5 -6 -9 -8 -9 -8 1 0 6 -5 12 -11 12 -8 0
-8 -4 1 -14z"/>
<path d="M3005 4920 c-9 -15 2 -27 53 -57 26 -15 79 -48 119 -75 40 -26 75
-48 78 -48 3 0 5 8 5 19 0 17 -84 79 -201 149 -41 25 -45 26 -54 12z"/>
<path d="M4800 4863 l-22 -28 22 -3 c13 -2 32 5 44 17 18 19 19 23 6 31 -22
14 -26 13 -50 -17z"/>
<path d="M5676 4727 c-218 -372 -226 -384 -299 -455 -40 -39 -241 -217 -447
-397 -453 -395 -625 -556 -787 -738 -211 -237 -329 -409 -428 -621 -35 -74
-115 -285 -115 -302 0 -2 20 -4 44 -4 43 0 44 1 60 47 177 493 442 820 911
1125 173 112 368 219 795 434 370 187 608 322 742 424 l80 60 -36 0 c-39 0
-117 35 -152 68 -12 11 -31 37 -44 57 -21 33 -21 38 -7 52 15 15 12 21 -36 73
-47 50 -147 230 -171 308 -4 12 -10 22 -14 22 -4 0 -47 -69 -96 -153z"/>
<path d="M2435 4849 c-4 -6 -5 -12 -4 -13 2 -2 73 -38 158 -80 100 -50 157
-74 163 -68 19 19 -4 35 -148 103 -150 72 -159 75 -169 58z"/>
<path d="M5066 4838 c-21 -29 -20 -38 2 -38 24 0 62 28 62 46 0 23 -47 17 -64
-8z"/>
<path d="M2913 4794 c-13 -14 -23 -27 -23 -30 0 -8 106 -64 121 -64 20 0 53
46 44 60 -7 11 -99 60 -112 60 -4 0 -18 -12 -30 -26z m61 -18 c41 -17 55 -36
27 -36 -11 0 -33 11 -48 25 -32 28 -27 31 21 11z"/>
<path d="M1025 4790 c-3 -6 1 -7 9 -4 18 7 21 14 7 14 -6 0 -13 -4 -16 -10z"/>
<path d="M1070 4796 c0 -2 9 -6 20 -9 11 -3 18 -1 14 4 -5 9 -34 13 -34 5z"/>
<path d="M2303 4755 c-3 -9 -4 -17 -2 -19 14 -12 103 -45 110 -40 21 13 6 33
-40 53 -59 25 -60 25 -68 6z"/>
<path d="M1000 4751 c0 -21 13 -41 26 -41 17 0 17 5 4 31 -11 20 -30 26 -30
10z"/>
<path d="M3324 4716 c-5 -12 2 -26 18 -42 20 -21 27 -23 36 -11 9 11 5 20 -18
42 -26 25 -30 26 -36 11z"/>
<path d="M1095 4709 c-4 -6 -5 -12 -2 -15 2 -3 7 2 10 11 7 17 1 20 -8 4z"/>
<path d="M3110 4690 c-11 -11 -20 -29 -20 -39 0 -20 55 -61 82 -61 12 0 48 48
48 64 0 6 -76 56 -85 56 -3 0 -14 -9 -25 -20z m54 -26 c18 -7 21 -30 6 -39
-13 -8 -40 13 -40 31 0 15 10 17 34 8z"/>
<path d="M2470 4675 c0 -8 27 -28 59 -45 52 -26 61 -27 71 -14 15 18 18 15
-54 48 -68 30 -76 31 -76 11z"/>
<path d="M2191 4656 c-9 -11 -5 -16 21 -27 70 -28 377 -181 451 -224 71 -42
107 -51 107 -27 0 10 -171 108 -299 172 -69 34 -259 120 -267 120 -1 0 -7 -6
-13 -14z"/>
<path d="M2817 4663 c-14 -13 -5 -22 81 -74 48 -29 102 -64 119 -77 33 -24 67
-24 58 0 -6 15 -8 16 -145 100 -98 60 -102 62 -113 51z"/>
<path d="M4450 4617 c-48 -65 -50 -83 -9 -92 35 -8 56 7 108 80 30 42 31 44
12 55 -43 22 -69 12 -111 -43z"/>
<path d="M3426 4624 c-4 -10 12 -32 50 -67 66 -61 74 -65 74 -40 0 17 -97 123
-112 123 -3 0 -9 -7 -12 -16z"/>
<path d="M1142 4595 c6 -14 15 -22 20 -17 12 12 -1 42 -18 42 -11 0 -11 -5 -2
-25z"/>
<path d="M3265 4603 c-4 -13 8 -29 47 -63 29 -24 81 -71 115 -104 53 -50 64
-56 69 -41 7 17 -42 70 -173 188 -48 43 -49 43 -58 20z"/>
<path d="M2667 4583 c-14 -14 -5 -22 81 -70 48 -28 108 -62 134 -77 48 -28 80
-28 57 0 -13 16 -242 154 -256 154 -5 0 -13 -3 -16 -7z"/>
<path d="M2060 4547 c0 -19 281 -140 294 -127 15 15 5 20 -134 83 -129 58
-160 67 -160 44z"/>
<path d="M1189 4541 c9 -6 10 -10 1 -13 -6 -2 8 -14 32 -27 49 -28 89 -57 89
-65 -3 -29 0 -40 8 -28 12 20 1 62 -15 55 -9 -3 -12 0 -9 9 6 15 -39 43 -64
39 -7 -1 -10 2 -7 8 4 5 -2 15 -13 20 -24 13 -42 14 -22 2z"/>
<path d="M3126 4465 c-4 -11 14 -30 56 -61 53 -39 63 -43 71 -29 5 9 7 18 5
19 -47 37 -116 86 -120 86 -3 0 -8 -7 -12 -15z"/>
<path d="M3796 4432 c-67 -130 -179 -734 -230 -1242 -26 -253 -55 -615 -61
-770 -3 -80 -8 -157 -10 -172 -4 -25 -1 -28 23 -28 l28 0 17 338 c48 910 110
1347 261 1844 13 40 13 47 0 52 -8 3 -19 -5 -28 -22z"/>
<path d="M1897 4437 c-6 -16 255 -133 273 -122 25 16 12 24 -153 96 -96 42
-112 46 -120 26z"/>
<path d="M2425 4379 c-9 -14 -15 -10 146 -100 84 -46 150 -77 159 -73 24 9
-34 51 -168 122 -66 34 -122 62 -125 62 -3 0 -9 -5 -12 -11z"/>
<path d="M3004 4378 c-5 -7 4 -21 22 -35 16 -12 69 -54 118 -93 49 -38 92 -70
96 -70 4 0 10 6 13 14 6 15 -65 77 -179 159 -57 41 -60 42 -70 25z"/>
<path d="M3295 4343 c-5 -14 7 -30 47 -65 29 -26 57 -46 62 -45 24 8 12 28
-43 76 -50 44 -60 49 -66 34z"/>
<path d="M1786 4334 c-4 -11 5 -19 30 -30 20 -8 75 -33 122 -55 76 -35 88 -38
101 -25 15 16 -5 27 -181 102 -68 28 -64 28 -72 8z"/>
<path d="M2816 4331 c-7 -11 10 -25 144 -116 89 -60 116 -74 118 -61 4 20 -15
37 -140 121 -97 65 -112 72 -122 56z"/>
<path d="M2236 4285 c-7 -19 152 -102 178 -92 29 11 17 22 -69 65 -95 47 -100
48 -109 27z"/>
<path d="M6226 4221 c-156 -118 -394 -255 -776 -446 -334 -167 -577 -296 -707
-374 -429 -256 -704 -537 -892 -909 -48 -96 -122 -282 -116 -291 3 -5 23 -12
45 -16 22 -4 40 -10 40 -14 0 -3 22 -14 49 -24 27 -9 64 -31 81 -47 38 -35 29
-36 185 27 154 63 466 165 631 207 248 62 435 97 1024 191 279 45 826 156
1012 206 l37 9 -69 108 c-37 59 -74 114 -82 122 -7 8 -24 37 -38 63 -21 39
-30 47 -55 48 -21 1 -24 3 -9 6 21 4 21 5 -9 60 -16 31 -39 58 -49 61 -14 3
-16 7 -8 12 9 5 1 25 -27 66 -22 33 -43 64 -46 71 -5 7 8 20 33 34 22 13 40
28 40 34 0 7 -28 17 -65 23 -148 24 -282 127 -315 241 -9 32 1 41 47 41 37 0
23 23 -22 35 -32 8 -41 16 -58 54 -45 101 14 262 147 399 27 28 47 52 44 52
-4 0 -36 -22 -72 -49z m24 -1071 c-8 -5 -46 -9 -85 -9 -48 0 -64 3 -50 9 29
12 154 12 135 0z m-527 -17 c-13 -2 -33 -2 -45 0 -13 2 -3 4 22 4 25 0 35 -2
23 -4z m135 -210 c-10 -2 -26 -2 -35 0 -10 3 -2 5 17 5 19 0 27 -2 18 -5z
m-470 -10 c-10 -2 -26 -2 -35 0 -10 3 -2 5 17 5 19 0 27 -2 18 -5z m102 -8 c0
-1 -15 -2 -32 -2 -26 -1 -29 1 -13 7 17 6 45 3 45 -5z m-360 -45 c-8 -5 -22
-9 -30 -9 -10 0 -8 3 5 9 27 12 43 12 25 0z m1017 -16 c-3 -3 -12 -4 -19 -1
-8 3 -5 6 6 6 11 1 17 -2 13 -5z m-90 -20 c-3 -3 -12 -4 -19 -1 -8 3 -5 6 6 6
11 1 17 -2 13 -5z m-377 -24 c-198 -15 -345 -22 -339 -15 9 8 219 22 339 22
l95 0 -95 -7z m-713 -16 c-3 -3 -12 -4 -19 -1 -8 3 -5 6 6 6 11 1 17 -2 13 -5z
m313 -25 c-25 -4 -58 -10 -75 -13 l-30 -5 30 14 c17 8 50 14 75 13 l45 0 -45
-9z m-650 -209 c-8 -5 -19 -10 -25 -10 -5 0 -3 5 5 10 8 5 20 10 25 10 6 0 3
-5 -5 -10z m-44 -19 c-3 -5 -16 -11 -28 -14 -22 -6 -22 -5 -4 8 22 17 40 20
32 6z m-321 -102 c-4 -5 -13 -9 -22 -9 -13 0 -13 3 -3 15 13 15 35 11 25 -6z
m120 -9 c-3 -5 -12 -10 -18 -10 -7 0 -6 4 3 10 19 12 23 12 15 0z m-161 -8 c3
-5 -1 -9 -9 -9 -8 0 -12 4 -9 9 3 4 7 8 9 8 2 0 6 -4 9 -8z m-79 -72 c-3 -5
-14 -10 -23 -10 -15 0 -15 2 -2 10 20 13 33 13 25 0z m-95 -73 c0 -2 -17 -19
-37 -38 l-38 -34 34 38 c33 34 41 42 41 34z"/>
<path d="M1655 4219 c-9 -13 -12 -11 65 -44 36 -15 93 -40 127 -56 53 -24 64
-25 74 -13 6 8 10 16 8 19 -9 9 -242 105 -254 105 -8 0 -17 -5 -20 -11z"/>
<path d="M2130 4176 c-30 -33 -21 -52 35 -77 42 -19 46 -19 70 -3 55 36 52 55
-12 88 -44 22 -66 20 -93 -8z m85 -19 c22 -17 12 -37 -18 -37 -31 0 -51 15
-44 34 8 20 37 21 62 3z"/>
<path d="M4426 4175 c-21 -32 -20 -45 3 -45 18 0 51 38 51 60 0 20 -38 10 -54
-15z"/>
<path d="M2481 4166 c-10 -12 -1 -20 51 -50 59 -33 77 -34 78 -4 0 6 -58 40
-111 66 -3 1 -11 -4 -18 -12z"/>
<path d="M2792 4163 c3 -20 166 -135 182 -130 27 9 9 30 -73 86 -94 64 -115
72 -109 44z"/>
<path d="M3294 4159 c-10 -18 61 -83 82 -75 15 6 14 10 -12 37 -38 40 -61 52
-70 38z"/>
<path d="M4076 4109 c-38 -84 -38 -93 6 -97 37 -3 37 -3 68 64 16 37 28 69 26
71 -2 2 -20 6 -40 10 -35 6 -36 5 -60 -48z"/>
<path d="M3109 4141 c-1 -6 -2 -15 -3 -19 -2 -15 193 -174 204 -167 16 10 1
28 -85 101 -115 98 -115 98 -116 85z"/>
<path d="M1509 4114 c-6 -8 -10 -16 -8 -18 2 -2 57 -25 123 -51 94 -37 120
-44 127 -34 11 19 5 24 -81 59 -137 58 -147 60 -161 44z"/>
<path d="M2345 4074 c-14 -15 -24 -32 -22 -38 6 -19 69 -56 94 -56 22 0 73 42
73 61 0 13 -57 49 -89 55 -24 5 -35 1 -56 -22z m89 -24 c15 -15 -2 -40 -27
-40 -34 0 -54 25 -37 45 13 15 45 12 64 -5z"/>
<path d="M2007 4062 c-15 -15 -27 -34 -27 -41 0 -15 76 -50 108 -51 23 0 72
40 72 59 0 12 -92 61 -113 61 -7 0 -25 -13 -40 -28z m84 -18 c25 -12 28 -18
18 -30 -15 -18 -50 -18 -75 1 -19 15 -19 15 0 30 24 18 21 18 57 -1z"/>
<path d="M2665 4059 c-8 -13 -13 -9 57 -52 47 -30 58 -34 68 -22 9 11 1 20
-42 49 -55 38 -73 43 -83 25z"/>
<path d="M3026 4013 c-12 -12 -5 -22 49 -69 44 -37 58 -45 68 -35 9 10 5 19
-23 43 -57 48 -87 68 -94 61z"/>
<path d="M1815 3980 c-4 -6 -5 -13 -3 -15 7 -7 220 -105 228 -105 4 0 11 7 14
15 4 12 -18 27 -91 61 -113 52 -138 60 -148 44z"/>
<path d="M2572 3967 c-29 -31 -28 -42 7 -66 45 -32 83 -36 105 -13 24 27 17
52 -19 73 -53 30 -70 31 -93 6z m63 -19 c24 -11 36 -48 15 -48 -36 0 -72 35
-53 53 8 9 8 9 38 -5z"/>
<path d="M2230 3953 c-11 -14 -19 -31 -17 -37 4 -12 86 -55 105 -56 17 0 62
45 62 63 0 16 -78 57 -108 57 -11 0 -30 -12 -42 -27z m96 -17 c18 -14 18 -16
2 -32 -14 -15 -21 -15 -47 -4 -34 14 -37 20 -19 38 16 16 40 15 64 -2z"/>
<path d="M2830 3946 c0 -8 27 -32 59 -55 48 -32 60 -37 65 -25 3 9 6 17 6 19
0 2 -22 19 -49 39 -51 38 -81 46 -81 22z"/>
<path d="M3187 3877 c-6 -17 -2 -22 46 -66 28 -27 40 -32 49 -23 9 9 6 18 -13
38 -41 44 -76 66 -82 51z"/>
<path d="M2464 3853 c-33 -36 -28 -53 28 -83 l48 -25 32 32 c32 33 32 33 13
53 -11 10 -37 26 -58 35 -37 15 -38 15 -63 -12z m70 -19 c26 -10 20 -44 -7
-44 -25 0 -47 17 -47 37 0 14 27 17 54 7z"/>
<path d="M2763 3854 c-17 -27 -17 -27 22 -60 44 -39 55 -41 79 -15 26 28 16
52 -29 78 -50 28 -51 28 -72 -3z m87 -44 c0 -14 -34 -12 -48 2 -7 7 -12 18
-12 25 0 11 6 10 30 -2 17 -9 30 -20 30 -25z"/>
<path d="M2132 3848 c-21 -21 -13 -48 21 -68 43 -27 92 -26 111 2 19 26 15 33
-34 58 -44 23 -80 26 -98 8z m79 -18 c10 -6 19 -17 19 -25 0 -20 -44 -19 -64
1 -29 28 4 46 45 24z"/>
<path d="M3007 3837 c-6 -16 41 -67 62 -67 21 0 8 31 -25 57 -25 19 -33 21
-37 10z"/>
<path d="M2654 3735 c-31 -41 -27 -50 42 -85 l47 -23 24 29 c12 16 23 37 23
46 0 16 -74 68 -98 68 -6 0 -23 -16 -38 -35z m106 -34 c0 -21 -31 -34 -55 -23
-27 12 -32 31 -14 49 9 9 19 8 40 -3 16 -8 29 -18 29 -23z"/>
<path d="M3114 3746 c-4 -11 8 -29 37 -56 45 -40 69 -50 69 -27 0 12 -41 55
-82 86 -15 11 -19 11 -24 -3z"/>
<path d="M2356 3731 c-15 -17 -13 -20 46 -55 34 -20 68 -34 75 -32 24 10 13
36 -24 59 -74 47 -79 48 -97 28z"/>
<path d="M2944 3738 c-4 -6 -2 -14 5 -16 6 -2 25 -15 41 -29 30 -25 54 -24 44
2 -6 13 -64 55 -77 55 -3 0 -9 -5 -13 -12z"/>
<path d="M3935 3685 c-18 -47 -15 -75 9 -75 13 0 46 66 46 94 0 11 -20 26 -35
26 -2 0 -11 -20 -20 -45z"/>
<path d="M7316 3696 c3 -7 -10 -55 -29 -105 l-34 -91 72 0 c58 0 74 3 79 16 9
23 1 28 -14 9 -12 -14 -71 -21 -82 -9 -8 7 37 140 57 171 15 23 15 23 -19 23
-26 0 -34 -4 -30 -14z"/>
<path d="M7505 3701 c7 -13 -44 -169 -62 -187 -12 -12 -9 -14 22 -14 20 0 34
4 31 9 -3 5 9 52 27 105 l34 96 -29 0 c-16 0 -27 -4 -23 -9z"/>
<path d="M7617 3688 c2 -13 -9 -60 -26 -106 l-30 -82 65 0 c56 0 68 4 89 25
29 28 31 42 8 67 -16 17 -15 19 4 33 24 17 34 47 22 66 -4 8 -34 15 -72 17
-64 4 -65 4 -60 -20z m96 -10 c7 -22 -15 -58 -40 -64 -33 -9 -36 -2 -19 40 15
36 49 50 59 24z m-25 -90 c17 -17 15 -35 -8 -58 -18 -18 -70 -28 -70 -14 0 4
5 24 12 45 8 30 16 39 33 39 11 0 26 -5 33 -12z"/>
<path d="M7822 3688 c0 -34 -49 -170 -64 -179 -8 -6 1 -9 24 -9 26 0 36 4 33
13 -3 6 8 48 23 92 22 63 32 80 48 80 13 0 20 -8 22 -28 3 -21 -3 -31 -25 -44
l-29 -16 24 -48 c16 -34 29 -49 42 -49 24 0 24 -2 1 52 l-19 44 24 21 c53 47
21 93 -65 93 -33 0 -39 -3 -39 -22z"/>
<path d="M8085 3632 c-32 -42 -69 -89 -83 -104 -25 -28 -25 -28 -4 -28 12 0
21 3 20 8 -1 4 4 17 12 30 12 17 24 22 59 22 42 0 43 -1 39 -30 -4 -28 -2 -30
25 -30 25 0 28 3 24 23 -3 12 -9 57 -13 100 -4 43 -10 80 -14 82 -4 3 -34 -30
-65 -73z m45 -23 c0 -38 -1 -39 -36 -39 -39 0 -39 0 -4 52 29 44 40 40 40 -13z"/>
<path d="M8297 3692 c4 -18 -41 -157 -59 -179 -8 -10 -3 -13 21 -13 25 0 31 4
31 21 0 12 6 35 14 52 7 18 19 51 25 75 9 30 17 42 30 42 41 0 36 -65 -5 -80
-24 -9 -24 -10 -7 -47 24 -53 33 -63 54 -63 17 0 17 2 -3 50 l-20 49 27 24
c22 18 27 29 22 49 -7 28 -30 38 -94 38 -35 0 -40 -3 -36 -18z"/>
<path d="M8544 3651 c18 -54 19 -64 7 -98 -8 -21 -19 -41 -25 -45 -6 -4 6 -8
27 -8 23 0 36 4 32 10 -14 22 19 81 75 135 33 31 60 58 60 61 0 2 -9 4 -21 4
-11 0 -18 -4 -15 -8 3 -5 -15 -28 -39 -52 l-44 -43 -11 29 c-6 16 -9 39 -7 51
4 20 0 23 -28 23 l-32 0 21 -59z"/>
<path d="M8875 3687 c6 -24 -49 -164 -70 -179 -5 -4 0 -8 13 -8 12 0 22 6 22
14 0 19 41 116 49 116 8 0 31 -82 31 -110 0 -11 4 -20 8 -20 4 0 34 32 67 70
66 78 77 74 47 -14 l-19 -56 29 0 c16 0 27 4 24 8 -6 9 30 157 45 184 7 13 6
18 -5 18 -7 0 -47 -37 -87 -82 l-74 -81 -12 44 c-6 24 -14 61 -18 82 -5 31
-10 37 -31 37 -21 0 -23 -4 -19 -23z"/>
<path d="M9201 3605 c-64 -84 -76 -105 -61 -105 11 0 19 3 18 8 -1 4 3 17 10
30 10 18 21 22 58 22 46 0 46 0 42 -30 -4 -28 -2 -30 25 -30 22 0 28 4 23 16
-3 9 -9 54 -13 100 -3 47 -10 87 -14 89 -4 3 -44 -42 -88 -100z m69 4 c0 -38
-1 -39 -35 -39 -19 0 -35 3 -35 6 0 13 55 82 62 77 5 -2 8 -22 8 -44z"/>
<path d="M9442 3681 c0 -15 -14 -63 -30 -105 -20 -50 -26 -76 -18 -76 7 0 23
34 36 76 13 41 27 77 31 80 5 2 13 -6 20 -18 7 -13 25 -36 41 -52 16 -16 32
-42 35 -58 7 -37 11 -31 52 82 33 90 35 100 23 100 -5 0 -19 -34 -32 -75 -13
-41 -26 -75 -29 -75 -3 0 -24 34 -46 75 -30 57 -45 75 -61 75 -16 0 -21 -6
-22 -29z"/>
<path d="M9729 3623 c-35 -48 -71 -95 -81 -105 -17 -17 -17 -18 2 -18 11 0 20
6 20 13 0 26 36 47 79 47 42 0 43 -1 39 -30 -4 -27 -2 -30 23 -30 26 0 27 2
19 28 -5 15 -12 62 -15 105 -4 42 -10 77 -15 77 -4 0 -36 -39 -71 -87z m51 -8
c0 -43 -1 -45 -30 -45 -16 0 -30 3 -30 8 0 9 49 82 55 82 3 0 5 -20 5 -45z"/>
<path d="M9972 3690 c-42 -26 -72 -76 -72 -121 0 -43 15 -58 64 -66 59 -9 104
4 121 37 20 38 19 40 -10 40 -20 0 -25 -5 -25 -25 0 -17 -8 -29 -25 -37 -22
-10 -30 -8 -53 9 -30 22 -37 42 -28 78 8 30 53 84 80 95 20 8 20 9 1 9 -11 1
-35 -8 -53 -19z"/>
<path d="M10121 3694 c0 -11 3 -14 6 -6 3 7 2 16 -1 19 -3 4 -6 -2 -5 -13z"/>
<path d="M10191 3664 c-7 -26 -23 -73 -36 -106 l-24 -59 67 3 c58 3 67 6 70
23 2 18 2 18 -8 3 -7 -12 -23 -18 -46 -18 -38 0 -38 0 -13 68 9 24 59 32 59
10 0 -8 7 -5 15 6 18 24 20 45 3 28 -7 -7 -23 -12 -36 -12 -22 0 -24 3 -18 32
8 43 23 58 57 58 21 0 29 -5 29 -17 0 -15 2 -16 9 -3 16 23 3 30 -58 30 l-59
0 -11 -46z"/>
<path d="M10364 3678 c0 -34 -50 -157 -69 -170 -5 -4 0 -8 13 -8 12 0 22 6 22
14 0 20 41 116 50 116 4 0 13 -29 20 -65 7 -36 15 -65 19 -65 3 0 33 32 66 70
66 77 77 74 47 -14 l-19 -56 26 0 c22 0 26 5 28 33 2 19 13 66 26 105 27 84
17 94 -35 35 -18 -21 -52 -57 -74 -82 l-42 -45 -17 82 c-16 72 -21 82 -39 82
-18 0 -22 -6 -22 -32z"/>
<path d="M10675 3649 c-9 -34 -25 -81 -36 -106 l-19 -44 68 3 c58 3 67 6 70
23 2 18 2 18 -8 3 -7 -12 -23 -18 -46 -18 -32 0 -34 2 -28 28 11 46 24 62 49
62 14 0 25 -5 25 -11 0 -17 17 -1 23 22 4 16 3 19 -6 10 -6 -6 -22 -11 -35
-11 -22 0 -24 3 -18 32 3 17 11 37 17 45 17 19 67 17 72 -4 4 -14 5 -12 6 5 1
20 -3 22 -58 22 l-58 0 -18 -61z"/>
<path d="M10863 3696 c6 -16 -39 -162 -56 -183 -7 -10 -4 -13 12 -13 12 0 20
4 17 9 -6 9 31 130 44 144 4 4 15 -5 25 -20 10 -15 26 -35 37 -43 10 -9 25
-34 33 -55 15 -46 9 -54 59 83 28 78 31 92 19 92 -5 0 -18 -35 -31 -77 -27
-88 -30 -87 -82 15 -26 51 -36 62 -57 62 -18 0 -24 -4 -20 -14z"/>
<path d="M11100 3690 c-6 -11 -7 -20 -1 -20 5 0 11 7 15 15 6 17 52 20 61 4 7
-11 -40 -154 -58 -176 -7 -10 -2 -13 22 -13 18 0 30 3 28 8 -3 4 9 48 27 97
30 87 32 90 64 93 25 3 32 0 32 -15 0 -15 2 -15 9 -3 17 25 2 30 -94 30 -84 0
-95 -2 -105 -20z"/>
<path d="M11524 3688 c-12 -13 -49 -60 -82 -105 -52 -70 -58 -83 -41 -83 11 0
18 4 15 8 -3 5 2 18 10 30 12 17 25 22 61 22 45 0 45 0 41 -30 -4 -27 -2 -30
22 -30 27 0 27 1 19 43 -4 23 -9 62 -9 87 -1 25 -5 53 -9 63 -6 17 -8 16 -27
-5z m3 -102 c-6 -15 -67 -24 -67 -11 0 3 12 24 27 47 l28 41 9 -31 c5 -17 6
-38 3 -46z"/>
<path d="M11692 3664 c-7 -27 -23 -75 -36 -106 l-24 -58 27 0 c19 0 27 5 28
18 2 29 43 148 57 167 19 26 46 12 46 -23 0 -28 -20 -54 -50 -65 -9 -3 -4 -6
11 -6 31 -1 74 30 82 58 8 34 -14 52 -74 58 l-55 5 -12 -48z"/>
<path d="M11876 3650 c-10 -34 -26 -82 -36 -106 l-19 -44 30 0 c17 0 28 4 25
9 -3 4 8 50 25 100 27 81 34 92 53 89 15 -2 22 -11 24 -31 4 -31 -11 -55 -43
-67 -18 -8 -17 -9 8 -9 35 -1 77 39 77 73 0 31 -8 36 -74 43 l-53 5 -17 -62z"/>
<path d="M3040 3670 c-12 -7 -5 -17 29 -47 65 -55 80 -65 92 -57 7 4 -6 23
-33 51 -52 54 -70 64 -88 53z"/>
<path d="M2894 3648 c-13 -20 77 -80 94 -63 7 7 -65 75 -79 75 -4 0 -11 -5
-15 -12z"/>
<path d="M2577 3612 c-26 -28 -20 -49 20 -77 47 -32 68 -32 89 0 16 24 16 27
-2 47 -16 17 -72 48 -87 48 -2 0 -11 -8 -20 -18z m64 -32 c21 -12 26 -40 6
-40 -17 0 -57 29 -57 41 0 12 27 12 51 -1z"/>
<path d="M3015 3559 c-8 -11 37 -64 69 -81 12 -7 22 -6 29 1 8 8 2 19 -23 41
-50 43 -67 52 -75 39z"/>
<path d="M2840 3546 c0 -8 14 -24 30 -36 28 -20 31 -20 37 -4 4 11 -1 23 -16
36 -28 22 -51 23 -51 4z"/>
<path d="M2774 3479 c-8 -13 -6 -15 125 -123 76 -63 107 -83 115 -75 12 11 6
17 -143 145 -77 67 -85 71 -97 53z"/>
<path d="M2943 3474 c-4 -11 8 -29 38 -55 63 -56 78 -64 86 -43 5 13 -9 30
-48 65 -60 53 -67 56 -76 33z"/>
<path d="M3780 3396 c-21 -57 -3 -81 20 -25 9 22 10 33 2 41 -8 8 -14 4 -22
-16z"/>
<path d="M2230 3373 c48 -35 122 -102 137 -123 8 -11 56 -48 106 -82 172 -115
308 -227 395 -327 l57 -65 -105 80 c-346 265 -652 404 -1055 480 -68 13 -175
18 -445 23 l-355 6 -97 -78 c-54 -43 -98 -80 -98 -83 0 -2 204 -4 453 -4 479
2 584 -5 777 -51 340 -79 769 -289 992 -485 109 -96 242 -263 334 -419 14 -25
30 -48 35 -51 15 -9 49 6 49 21 0 18 -56 114 -133 230 -201 301 -489 583 -817
799 -90 60 -283 168 -230 129z"/>
<path d="M3875 3300 c-10 -20 -13 -36 -7 -46 8 -14 11 -13 26 7 18 26 22 69 6
69 -5 0 -17 -14 -25 -30z"/>
<path d="M627 3123 c-4 -3 -7 -14 -7 -24 0 -27 71 -30 565 -27 479 3 515 0
760 -53 293 -62 655 -208 862 -346 175 -117 354 -294 459 -454 20 -30 33 -46
30 -37 -10 33 -78 132 -159 231 -195 242 -509 442 -907 579 -327 112 -483 130
-1107 126 -246 -1 -457 1 -469 5 -11 4 -23 4 -27 0z m273 -33 c0 -5 -16 -10
-35 -10 -19 0 -35 5 -35 10 0 6 16 10 35 10 19 0 35 -4 35 -10z"/>
<path d="M590 2997 c0 -8 -3 -22 -6 -31 -4 -12 0 -16 17 -17 16 -1 13 -4 -11
-8 -29 -5 -35 -10 -36 -32 -1 -14 -4 -37 -7 -52 -7 -24 -4 -26 45 -36 138 -28
371 -50 758 -71 580 -32 983 -131 1403 -344 133 -68 426 -249 441 -274 17 -28
-22 -16 -145 44 -437 214 -794 296 -1594 369 -325 30 -401 38 -585 66 -143 21
-363 63 -417 78 -31 9 -35 7 -69 -35 -20 -24 -35 -46 -33 -48 7 -6 200 -45
324 -65 181 -29 416 -58 760 -91 361 -35 426 -43 635 -76 313 -50 619 -126
948 -236 142 -47 154 -50 170 -34 10 9 22 16 26 16 4 0 21 9 37 20 l28 21 -46
61 c-103 135 -249 271 -389 361 -206 133 -603 295 -892 363 -198 47 -222 48
-752 49 -278 0 -529 4 -557 9 -45 7 -53 6 -53 -7z m239 -23 c3 -2 0 -9 -6 -15
-13 -13 -180 -8 -201 5 -30 18 5 25 101 20 56 -3 104 -8 106 -10z m664 -31
c-24 -2 -62 -2 -85 0 -24 2 -5 4 42 4 47 0 66 -2 43 -4z m-213 -13 c0 -3 -28
-4 -63 -2 -52 3 -72 0 -108 -18 -24 -13 -46 -22 -49 -20 -28 15 -54 19 -70 10
-24 -13 -312 -21 -304 -9 3 5 13 9 22 9 15 1 15 2 -2 15 -11 8 -29 14 -40 14
-17 -1 -18 -2 -3 -6 33 -9 6 -23 -43 -23 -39 0 -48 3 -44 14 3 8 22 16 42 18
71 6 662 4 662 -2z m395 0 c17 -4 23 -8 14 -9 -9 0 -29 -4 -45 -7 -18 -3 -36
0 -49 10 -19 15 -18 15 15 14 19 0 49 -4 65 -8z m-258 -6 c-3 -3 -12 -4 -19
-1 -8 3 -5 6 6 6 11 1 17 -2 13 -5z m-179 -51 c-43 -2 -113 -2 -155 0 -43 1
-8 3 77 3 85 0 120 -2 78 -3z m280 -10 c-15 -2 -42 -2 -60 0 -18 2 -6 4 27 4
33 0 48 -2 33 -4z m-750 -26 c3 -17 -2 -18 -50 -14 -29 3 -71 9 -93 14 l-40 8
60 6 c94 10 119 7 123 -14z m845 16 c-7 -2 -19 -2 -25 0 -7 3 -2 5 12 5 14 0
19 -2 13 -5z m546 -55 c58 -21 95 -37 82 -34 -13 3 -34 -2 -46 -10 -20 -13
-35 -11 -146 16 -68 16 -133 30 -144 31 -11 0 0 6 25 13 25 6 47 9 50 5 10
-11 40 -18 40 -9 0 6 -7 10 -15 10 -8 0 -15 4 -15 9 0 5 10 7 23 4 18 -4 19
-3 7 7 -21 16 7 8 139 -42z m178 -88 c14 -11 33 -20 42 -20 14 0 14 2 1 10
-12 8 -10 10 9 10 28 0 143 -49 153 -66 5 -7 32 -18 60 -25 29 -7 45 -15 36
-17 -10 -2 -18 -7 -18 -12 0 -9 -115 23 -133 38 -7 5 -49 22 -95 37 -51 16
-80 31 -76 37 4 7 2 8 -5 4 -7 -5 -24 -4 -39 0 l-27 7 30 7 c17 4 32 8 33 9 2
0 15 -8 29 -19z m-1745 -72 c13 -7 24 -14 26 -15 2 -1 -2 -11 -8 -23 -11 -21
-17 -22 -77 -16 -67 7 -143 32 -143 47 0 28 155 33 202 7z m2078 -63 c-7 -8
-19 -11 -28 -7 -14 6 -13 7 6 10 13 2 20 8 16 14 -4 7 -2 8 5 4 9 -6 9 -11 1
-21z m130 -51 c0 -3 -5 -2 -10 1 -6 4 -19 1 -28 -7 -15 -12 -16 -11 -3 5 7 9
9 17 4 17 -5 0 -18 7 -29 15 -11 10 -2 8 24 -5 23 -11 42 -23 42 -26z m-105
26 c3 -6 -1 -7 -9 -4 -18 7 -21 14 -7 14 6 0 13 -4 16 -10z m149 -59 c-2 -3
-12 3 -22 13 -16 17 -16 18 5 5 12 -7 20 -15 17 -18z m29 -28 c-4 -10 -10 -10
-26 -1 -31 15 -31 15 1 14 19 -1 28 -5 25 -13z m72 -53 c25 -6 35 -13 35 -26
0 -21 -11 -17 -50 17 -19 17 -26 26 -15 21 11 -6 25 -11 30 -12z m115 -103
c10 -20 10 -20 -3 -5 -8 10 -17 15 -20 11 -4 -3 -7 1 -7 11 0 21 16 12 30 -17z"/>
<path d="M497 2783 c-11 -10 -8 -20 8 -27 44 -17 337 -49 643 -71 191 -13 374
-27 407 -30 245 -24 627 -89 825 -140 52 -13 96 -23 97 -21 6 6 -227 77 -348
105 -262 62 -444 86 -889 116 -274 19 -498 40 -625 61 -103 16 -109 16 -118 7z"/>
<path d="M6931 2748 c-24 -6 -31 -12 -22 -18 34 -20 -661 -166 -1319 -275
-429 -72 -741 -137 -980 -206 -122 -35 -423 -138 -527 -182 l-72 -29 6 -48 c9
-75 -4 -117 -49 -166 -80 -87 -200 -133 -363 -141 -96 -4 -123 -1 -209 21
-109 28 -185 68 -244 129 -35 36 -37 41 -37 105 0 37 4 79 8 93 8 25 6 27 -50
47 -32 11 -141 44 -242 72 -513 142 -746 183 -1471 255 -195 19 -389 40 -430
45 -228 33 -486 75 -612 100 -79 16 -146 26 -149 22 -12 -14 -47 -132 -41
-136 15 -9 1124 -289 1607 -406 94 -23 215 -52 270 -65 55 -14 150 -36 210
-49 61 -14 200 -45 310 -70 244 -54 548 -116 574 -116 11 0 28 -14 41 -34 27
-45 114 -102 204 -135 65 -24 84 -26 226 -26 146 0 160 2 232 28 42 16 102 46
133 68 l55 38 0 -30 c0 -30 1 -31 38 -25 432 67 491 76 677 112 44 9 127 24
185 35 58 10 159 30 225 45 66 14 152 32 190 39 39 8 122 26 185 40 63 14 162
37 220 50 58 13 173 40 255 60 83 20 197 47 255 61 58 13 121 29 140 34 75 21
430 109 528 130 56 13 102 28 102 34 0 6 -16 76 -35 155 -19 80 -33 145 -32
146 1 1 23 9 49 19 26 10 50 22 54 27 8 14 -37 159 -50 158 -6 0 -26 -5 -45
-11z"/>
<path d="M3455 2170 c-145 -34 -226 -78 -265 -143 -26 -42 -26 -110 0 -152 64
-104 276 -170 462 -145 153 21 254 77 297 163 21 43 23 53 12 88 -22 74 -102
138 -218 175 -58 18 -233 27 -288 14z"/>
</g>
</svg>
